<?xml version="1.0" encoding="utf-8"?>
<!-- Generator: Adobe Illustrator 22.1.0, SVG Export Plug-In . SVG Version: 6.00 Build 0)  -->
<svg version="1.1" id="Layer_1" xmlns="http://www.w3.org/2000/svg" xmlns:xlink="http://www.w3.org/1999/xlink" x="0px" y="0px"
	 viewBox="0 0 1920 750" style="enable-background:new 0 0 1920 750;" xml:space="preserve">
<style type="text/css">
	.st0{fill:#22D7DA;}
	.st1{filter:url(#Adobe_OpacityMaskFilter);}
	.st2{fill:#FFFFFF;}
	.st3{mask:url(#testimonial-bg-b_1_);fill:#FC5C42;}
</style>
<g>
	<g transform="translate(318 308)">
		<path class="st0" d="M41-33.5c0,1.4-1.1,2.5-2.5,2.5c-1.4,0-2.5-1.1-2.5-2.5s1.1-2.5,2.5-2.5C39.9-36,41-34.9,41-33.5 M55.3-33.5
			c0,1.4-1.1,2.5-2.5,2.5c-1.4,0-2.5-1.1-2.5-2.5s1.1-2.5,2.5-2.5C54.2-36,55.3-34.9,55.3-33.5 M68.5-33.5c0,1.4-1.1,2.5-2.5,2.5
			c-1.4,0-2.5-1.1-2.5-2.5S64.6-36,66-36C67.3-36,68.5-34.9,68.5-33.5 M82.8-33.5c0,1.4-1.1,2.5-2.5,2.5c-1.4,0-2.5-1.1-2.5-2.5
			s1.1-2.5,2.5-2.5C81.7-36,82.8-34.9,82.8-33.5 M95.9-33.5c0,1.4-1.1,2.5-2.5,2.5c-1.4,0-2.5-1.1-2.5-2.5S92-36,93.4-36
			C94.8-36,95.9-34.9,95.9-33.5 M41-19.6c0,1.4-1.1,2.5-2.5,2.5c-1.4,0-2.5-1.1-2.5-2.5c0-1.4,1.1-2.5,2.5-2.5
			C39.9-22.1,41-21,41-19.6 M55.3-19.6c0,1.4-1.1,2.5-2.5,2.5c-1.4,0-2.5-1.1-2.5-2.5c0-1.4,1.1-2.5,2.5-2.5
			C54.2-22.1,55.3-21,55.3-19.6 M68.5-19.6c0,1.4-1.1,2.5-2.5,2.5c-1.4,0-2.5-1.1-2.5-2.5c0-1.4,1.1-2.5,2.5-2.5
			C67.3-22.1,68.5-21,68.5-19.6 M82.8-19.6c0,1.4-1.1,2.5-2.5,2.5c-1.4,0-2.5-1.1-2.5-2.5c0-1.4,1.1-2.5,2.5-2.5
			C81.7-22.1,82.8-21,82.8-19.6 M95.9-19.6c0,1.4-1.1,2.5-2.5,2.5c-1.4,0-2.5-1.1-2.5-2.5c0-1.4,1.1-2.5,2.5-2.5
			C94.8-22.1,95.9-21,95.9-19.6 M41-4.5C41-3.1,39.9-2,38.5-2C37.1-2,36-3.1,36-4.5C36-5.8,37.1-7,38.5-7C39.9-7,41-5.8,41-4.5
			 M55.3-4.5c0,1.4-1.1,2.5-2.5,2.5c-1.4,0-2.5-1.1-2.5-2.5c0-1.4,1.1-2.5,2.5-2.5C54.2-7,55.3-5.8,55.3-4.5 M68.5-4.5
			C68.5-3.1,67.3-2,66-2c-1.4,0-2.5-1.1-2.5-2.5C63.5-5.8,64.6-7,66-7C67.3-7,68.5-5.8,68.5-4.5 M82.8-4.5c0,1.4-1.1,2.5-2.5,2.5
			c-1.4,0-2.5-1.1-2.5-2.5c0-1.4,1.1-2.5,2.5-2.5C81.7-7,82.8-5.8,82.8-4.5 M95.9-4.5c0,1.4-1.1,2.5-2.5,2.5c-1.4,0-2.5-1.1-2.5-2.5
			C90.9-5.8,92-7,93.4-7C94.8-7,95.9-5.8,95.9-4.5 M41,9.4c0,1.4-1.1,2.5-2.5,2.5c-1.4,0-2.5-1.1-2.5-2.5c0-1.4,1.1-2.5,2.5-2.5
			C39.9,6.9,41,8,41,9.4 M55.3,9.4c0,1.4-1.1,2.5-2.5,2.5c-1.4,0-2.5-1.1-2.5-2.5c0-1.4,1.1-2.5,2.5-2.5C54.2,6.9,55.3,8,55.3,9.4
			 M68.5,9.4c0,1.4-1.1,2.5-2.5,2.5c-1.4,0-2.5-1.1-2.5-2.5c0-1.4,1.1-2.5,2.5-2.5C67.3,6.9,68.5,8,68.5,9.4 M82.8,9.4
			c0,1.4-1.1,2.5-2.5,2.5c-1.4,0-2.5-1.1-2.5-2.5c0-1.4,1.1-2.5,2.5-2.5C81.7,6.9,82.8,8,82.8,9.4 M95.9,9.4c0,1.4-1.1,2.5-2.5,2.5
			c-1.4,0-2.5-1.1-2.5-2.5c0-1.4,1.1-2.5,2.5-2.5C94.8,6.9,95.9,8,95.9,9.4 M41,24.6c0,1.4-1.1,2.5-2.5,2.5c-1.4,0-2.5-1.1-2.5-2.5
			c0-1.4,1.1-2.5,2.5-2.5C39.9,22.1,41,23.2,41,24.6 M55.3,24.6c0,1.4-1.1,2.5-2.5,2.5c-1.4,0-2.5-1.1-2.5-2.5
			c0-1.4,1.1-2.5,2.5-2.5C54.2,22.1,55.3,23.2,55.3,24.6 M68.5,24.6c0,1.4-1.1,2.5-2.5,2.5c-1.4,0-2.5-1.1-2.5-2.5
			c0-1.4,1.1-2.5,2.5-2.5C67.3,22.1,68.5,23.2,68.5,24.6 M82.8,24.6c0,1.4-1.1,2.5-2.5,2.5c-1.4,0-2.5-1.1-2.5-2.5
			c0-1.4,1.1-2.5,2.5-2.5C81.7,22.1,82.8,23.2,82.8,24.6 M95.9,24.6c0,1.4-1.1,2.5-2.5,2.5c-1.4,0-2.5-1.1-2.5-2.5
			c0-1.4,1.1-2.5,2.5-2.5C94.8,22.1,95.9,23.2,95.9,24.6 M41,38.5c0,1.4-1.1,2.5-2.5,2.5c-1.4,0-2.5-1.1-2.5-2.5
			c0-1.4,1.1-2.5,2.5-2.5C39.9,36,41,37.1,41,38.5 M55.3,38.5c0,1.4-1.1,2.5-2.5,2.5c-1.4,0-2.5-1.1-2.5-2.5c0-1.4,1.1-2.5,2.5-2.5
			C54.2,36,55.3,37.1,55.3,38.5 M68.5,38.5c0,1.4-1.1,2.5-2.5,2.5c-1.4,0-2.5-1.1-2.5-2.5c0-1.4,1.1-2.5,2.5-2.5
			C67.3,36,68.5,37.1,68.5,38.5 M82.8,38.5c0,1.4-1.1,2.5-2.5,2.5c-1.4,0-2.5-1.1-2.5-2.5c0-1.4,1.1-2.5,2.5-2.5
			C81.7,36,82.8,37.1,82.8,38.5 M95.9,38.5c0,1.4-1.1,2.5-2.5,2.5c-1.4,0-2.5-1.1-2.5-2.5c0-1.4,1.1-2.5,2.5-2.5
			C94.8,36,95.9,37.1,95.9,38.5 M110.2-33.5c0,1.4-1.1,2.5-2.5,2.5c-1.4,0-2.5-1.1-2.5-2.5s1.1-2.5,2.5-2.5
			C109.1-36,110.2-34.9,110.2-33.5 M110.2-19.6c0,1.4-1.1,2.5-2.5,2.5c-1.4,0-2.5-1.1-2.5-2.5c0-1.4,1.1-2.5,2.5-2.5
			C109.1-22.1,110.2-21,110.2-19.6 M110.2-4.5c0,1.4-1.1,2.5-2.5,2.5c-1.4,0-2.5-1.1-2.5-2.5c0-1.4,1.1-2.5,2.5-2.5
			C109.1-7,110.2-5.8,110.2-4.5 M110.2,9.4c0,1.4-1.1,2.5-2.5,2.5c-1.4,0-2.5-1.1-2.5-2.5c0-1.4,1.1-2.5,2.5-2.5
			C109.1,6.9,110.2,8,110.2,9.4 M110.2,24.6c0,1.4-1.1,2.5-2.5,2.5c-1.4,0-2.5-1.1-2.5-2.5c0-1.4,1.1-2.5,2.5-2.5
			C109.1,22.1,110.2,23.2,110.2,24.6 M110.2,38.5c0,1.4-1.1,2.5-2.5,2.5c-1.4,0-2.5-1.1-2.5-2.5c0-1.4,1.1-2.5,2.5-2.5
			C109.1,36,110.2,37.1,110.2,38.5"/>
		<path class="st0" d="M125-33.5c0,1.4-1.1,2.5-2.5,2.5c-1.4,0-2.5-1.1-2.5-2.5s1.1-2.5,2.5-2.5C123.9-36,125-34.9,125-33.5
			 M139.3-33.5c0,1.4-1.1,2.5-2.5,2.5c-1.4,0-2.5-1.1-2.5-2.5s1.1-2.5,2.5-2.5C138.2-36,139.3-34.9,139.3-33.5 M152.5-33.5
			c0,1.4-1.1,2.5-2.5,2.5c-1.4,0-2.5-1.1-2.5-2.5s1.1-2.5,2.5-2.5C151.3-36,152.5-34.9,152.5-33.5 M166.8-33.5
			c0,1.4-1.1,2.5-2.5,2.5c-1.4,0-2.5-1.1-2.5-2.5s1.1-2.5,2.5-2.5C165.7-36,166.8-34.9,166.8-33.5 M179.9-33.5
			c0,1.4-1.1,2.5-2.5,2.5c-1.4,0-2.5-1.1-2.5-2.5s1.1-2.5,2.5-2.5C178.8-36,179.9-34.9,179.9-33.5 M125-19.6c0,1.4-1.1,2.5-2.5,2.5
			c-1.4,0-2.5-1.1-2.5-2.5c0-1.4,1.1-2.5,2.5-2.5C123.9-22.1,125-21,125-19.6 M139.3-19.6c0,1.4-1.1,2.5-2.5,2.5
			c-1.4,0-2.5-1.1-2.5-2.5c0-1.4,1.1-2.5,2.5-2.5C138.2-22.1,139.3-21,139.3-19.6 M152.5-19.6c0,1.4-1.1,2.5-2.5,2.5
			c-1.4,0-2.5-1.1-2.5-2.5c0-1.4,1.1-2.5,2.5-2.5C151.3-22.1,152.5-21,152.5-19.6 M166.8-19.6c0,1.4-1.1,2.5-2.5,2.5
			c-1.4,0-2.5-1.1-2.5-2.5c0-1.4,1.1-2.5,2.5-2.5C165.7-22.1,166.8-21,166.8-19.6 M179.9-19.6c0,1.4-1.1,2.5-2.5,2.5
			c-1.4,0-2.5-1.1-2.5-2.5c0-1.4,1.1-2.5,2.5-2.5C178.8-22.1,179.9-21,179.9-19.6 M125-4.5c0,1.4-1.1,2.5-2.5,2.5
			c-1.4,0-2.5-1.1-2.5-2.5c0-1.4,1.1-2.5,2.5-2.5C123.9-7,125-5.8,125-4.5 M139.3-4.5c0,1.4-1.1,2.5-2.5,2.5c-1.4,0-2.5-1.1-2.5-2.5
			c0-1.4,1.1-2.5,2.5-2.5C138.2-7,139.3-5.8,139.3-4.5 M152.5-4.5c0,1.4-1.1,2.5-2.5,2.5c-1.4,0-2.5-1.1-2.5-2.5
			c0-1.4,1.1-2.5,2.5-2.5C151.3-7,152.5-5.8,152.5-4.5 M166.8-4.5c0,1.4-1.1,2.5-2.5,2.5c-1.4,0-2.5-1.1-2.5-2.5
			c0-1.4,1.1-2.5,2.5-2.5C165.7-7,166.8-5.8,166.8-4.5 M179.9-4.5c0,1.4-1.1,2.5-2.5,2.5c-1.4,0-2.5-1.1-2.5-2.5
			c0-1.4,1.1-2.5,2.5-2.5C178.8-7,179.9-5.8,179.9-4.5 M125,9.4c0,1.4-1.1,2.5-2.5,2.5c-1.4,0-2.5-1.1-2.5-2.5
			c0-1.4,1.1-2.5,2.5-2.5C123.9,6.9,125,8,125,9.4 M139.3,9.4c0,1.4-1.1,2.5-2.5,2.5c-1.4,0-2.5-1.1-2.5-2.5c0-1.4,1.1-2.5,2.5-2.5
			C138.2,6.9,139.3,8,139.3,9.4 M152.5,9.4c0,1.4-1.1,2.5-2.5,2.5c-1.4,0-2.5-1.1-2.5-2.5c0-1.4,1.1-2.5,2.5-2.5
			C151.3,6.9,152.5,8,152.5,9.4 M166.8,9.4c0,1.4-1.1,2.5-2.5,2.5c-1.4,0-2.5-1.1-2.5-2.5c0-1.4,1.1-2.5,2.5-2.5
			C165.7,6.9,166.8,8,166.8,9.4 M179.9,9.4c0,1.4-1.1,2.5-2.5,2.5c-1.4,0-2.5-1.1-2.5-2.5c0-1.4,1.1-2.5,2.5-2.5
			C178.8,6.9,179.9,8,179.9,9.4 M125,24.6c0,1.4-1.1,2.5-2.5,2.5c-1.4,0-2.5-1.1-2.5-2.5c0-1.4,1.1-2.5,2.5-2.5
			C123.9,22.1,125,23.2,125,24.6 M139.3,24.6c0,1.4-1.1,2.5-2.5,2.5c-1.4,0-2.5-1.1-2.5-2.5c0-1.4,1.1-2.5,2.5-2.5
			C138.2,22.1,139.3,23.2,139.3,24.6 M152.5,24.6c0,1.4-1.1,2.5-2.5,2.5c-1.4,0-2.5-1.1-2.5-2.5c0-1.4,1.1-2.5,2.5-2.5
			C151.3,22.1,152.5,23.2,152.5,24.6 M166.8,24.6c0,1.4-1.1,2.5-2.5,2.5c-1.4,0-2.5-1.1-2.5-2.5c0-1.4,1.1-2.5,2.5-2.5
			C165.7,22.1,166.8,23.2,166.8,24.6 M179.9,24.6c0,1.4-1.1,2.5-2.5,2.5c-1.4,0-2.5-1.1-2.5-2.5c0-1.4,1.1-2.5,2.5-2.5
			C178.8,22.1,179.9,23.2,179.9,24.6 M125,38.5c0,1.4-1.1,2.5-2.5,2.5c-1.4,0-2.5-1.1-2.5-2.5c0-1.4,1.1-2.5,2.5-2.5
			C123.9,36,125,37.1,125,38.5 M139.3,38.5c0,1.4-1.1,2.5-2.5,2.5c-1.4,0-2.5-1.1-2.5-2.5c0-1.4,1.1-2.5,2.5-2.5
			C138.2,36,139.3,37.1,139.3,38.5 M152.5,38.5c0,1.4-1.1,2.5-2.5,2.5c-1.4,0-2.5-1.1-2.5-2.5c0-1.4,1.1-2.5,2.5-2.5
			C151.3,36,152.5,37.1,152.5,38.5 M166.8,38.5c0,1.4-1.1,2.5-2.5,2.5c-1.4,0-2.5-1.1-2.5-2.5c0-1.4,1.1-2.5,2.5-2.5
			C165.7,36,166.8,37.1,166.8,38.5 M179.9,38.5c0,1.4-1.1,2.5-2.5,2.5c-1.4,0-2.5-1.1-2.5-2.5c0-1.4,1.1-2.5,2.5-2.5
			C178.8,36,179.9,37.1,179.9,38.5 M194.2-33.5c0,1.4-1.1,2.5-2.5,2.5c-1.4,0-2.5-1.1-2.5-2.5s1.1-2.5,2.5-2.5
			C193.1-36,194.2-34.9,194.2-33.5 M194.2-19.6c0,1.4-1.1,2.5-2.5,2.5c-1.4,0-2.5-1.1-2.5-2.5c0-1.4,1.1-2.5,2.5-2.5
			C193.1-22.1,194.2-21,194.2-19.6 M194.2-4.5c0,1.4-1.1,2.5-2.5,2.5c-1.4,0-2.5-1.1-2.5-2.5c0-1.4,1.1-2.5,2.5-2.5
			C193.1-7,194.2-5.8,194.2-4.5 M194.2,9.4c0,1.4-1.1,2.5-2.5,2.5c-1.4,0-2.5-1.1-2.5-2.5c0-1.4,1.1-2.5,2.5-2.5
			C193.1,6.9,194.2,8,194.2,9.4 M194.2,24.6c0,1.4-1.1,2.5-2.5,2.5c-1.4,0-2.5-1.1-2.5-2.5c0-1.4,1.1-2.5,2.5-2.5
			C193.1,22.1,194.2,23.2,194.2,24.6 M194.2,38.5c0,1.4-1.1,2.5-2.5,2.5c-1.4,0-2.5-1.1-2.5-2.5c0-1.4,1.1-2.5,2.5-2.5
			C193.1,36,194.2,37.1,194.2,38.5"/>
	</g>
	<g transform="translate(1485 512)">
		<defs>
			<filter id="Adobe_OpacityMaskFilter" filterUnits="userSpaceOnUse" x="-27" y="-10" width="69" height="56">
				<feColorMatrix  type="matrix" values="1 0 0 0 0  0 1 0 0 0  0 0 1 0 0  0 0 0 1 0"/>
			</filter>
		</defs>
		<mask maskUnits="userSpaceOnUse" x="-27" y="-10" width="69" height="56" id="testimonial-bg-b_1_">
			<g class="st1">
				<polygon id="testimonial-bg-a_1_" class="st2" points="-40,-10 29,-10 29,46 -40,46 				"/>
			</g>
		</mask>
		<path class="st3" d="M41.3-6c-3.6,3.6-7.6,3.4-10.8,3.2C27.6-3,25.4-3.2,23.2-1c-2.2,2.2-2,4.4-1.8,7.3c0.2,3.2,0.4,7.2-3.2,10.9
			s-7.6,3.4-10.8,3.2c-2.9-0.2-5.1-0.3-7.3,1.8c-2.2,2.2-2,4.4-1.8,7.3c0.2,3.2,0.4,7.2-3.2,10.9c-3.6,3.6-7.6,3.4-10.8,3.2
			c-2.9-0.2-5.1-0.3-7.3,1.8c-0.9,0.9-2.4,0.9-3.3,0c-0.9-0.9-0.9-2.4,0-3.3c3.6-3.6,7.6-3.4,10.8-3.2c2.9,0.2,5.1,0.3,7.3-1.8
			c2.2-2.2,2-4.4,1.8-7.3c-0.2-3.2-0.4-7.2,3.2-10.9c3.6-3.6,7.6-3.4,10.8-3.2c2.9,0.2,5.1,0.3,7.3-1.8c2.2-2.2,2-4.4,1.8-7.3
			c-0.2-3.2-0.4-7.2,3.2-10.9c3.6-3.6,7.6-3.4,10.8-3.2c2.9,0.2,5.1,0.3,7.3-1.8c0.9-0.9,2.4-0.9,3.3,0C42.2-8.4,42.2-6.9,41.3-6"/>
	</g>
</g>
</svg>
